<mxfile host="65bd71144e">
    <diagram id="aALymt0GN8XJSA3VEMmh" name="login">
        <mxGraphModel dx="752" dy="562" grid="1" gridSize="10" guides="1" tooltips="1" connect="1" arrows="1" fold="1" page="1" pageScale="1" pageWidth="850" pageHeight="1100" math="0" shadow="0">
            <root>
                <mxCell id="0"/>
                <mxCell id="1" parent="0"/>
                <object label="/login" id="2">
                    <mxCell style="rounded=0;whiteSpace=wrap;html=1;" parent="1" vertex="1">
                        <mxGeometry x="315" y="40" width="165" height="50" as="geometry"/>
                    </mxCell>
                </object>
                <mxCell id="3" value="" style="endArrow=none;html=1;" parent="1" edge="1">
                    <mxGeometry width="50" height="50" relative="1" as="geometry">
                        <mxPoint x="32" y="281" as="sourcePoint"/>
                        <mxPoint x="832" y="281" as="targetPoint"/>
                    </mxGeometry>
                </mxCell>
                <mxCell id="4" value="" style="endArrow=none;html=1;" parent="1" edge="1">
                    <mxGeometry width="50" height="50" relative="1" as="geometry">
                        <mxPoint x="25" y="380" as="sourcePoint"/>
                        <mxPoint x="825" y="380" as="targetPoint"/>
                    </mxGeometry>
                </mxCell>
                <mxCell id="5" value="" style="endArrow=none;html=1;" parent="1" edge="1">
                    <mxGeometry width="50" height="50" relative="1" as="geometry">
                        <mxPoint x="32" y="483.5" as="sourcePoint"/>
                        <mxPoint x="832" y="483.5" as="targetPoint"/>
                    </mxGeometry>
                </mxCell>
                <mxCell id="48" style="edgeStyle=none;html=1;exitX=0.5;exitY=0;exitDx=0;exitDy=0;exitPerimeter=0;fontFamily=Helvetica;fontSize=24;fontColor=default;fontStyle=1;" parent="1" source="7" edge="1">
                    <mxGeometry relative="1" as="geometry">
                        <mxPoint x="400" y="580" as="targetPoint"/>
                    </mxGeometry>
                </mxCell>
                <mxCell id="7" value="mssql" style="shape=cylinder3;whiteSpace=wrap;html=1;boundedLbl=1;backgroundOutline=1;size=15;" parent="1" vertex="1">
                    <mxGeometry x="325" y="630" width="150" height="80" as="geometry"/>
                </mxCell>
                <mxCell id="8" value="" style="endArrow=none;html=1;" parent="1" edge="1">
                    <mxGeometry width="50" height="50" relative="1" as="geometry">
                        <mxPoint x="30" y="590" as="sourcePoint"/>
                        <mxPoint x="830" y="590" as="targetPoint"/>
                    </mxGeometry>
                </mxCell>
                <mxCell id="10" value="dao" style="text;html=1;fontSize=24;fontStyle=1;verticalAlign=middle;align=center;" parent="1" vertex="1">
                    <mxGeometry x="32" y="423.5" width="97" height="43" as="geometry"/>
                </mxCell>
                <mxCell id="11" value="mapper" style="text;strokeColor=none;fillColor=none;html=1;fontSize=24;fontStyle=1;verticalAlign=middle;align=center;" parent="1" vertex="1">
                    <mxGeometry x="30" y="530" width="100" height="40" as="geometry"/>
                </mxCell>
                <mxCell id="12" value="service" style="text;strokeColor=none;fillColor=none;html=1;fontSize=24;fontStyle=1;verticalAlign=middle;align=center;" parent="1" vertex="1">
                    <mxGeometry x="32" y="310" width="110" height="42" as="geometry"/>
                </mxCell>
                <mxCell id="13" value="Controller" style="text;strokeColor=none;fillColor=none;html=1;fontSize=24;fontStyle=1;verticalAlign=middle;align=center;" parent="1" vertex="1">
                    <mxGeometry x="39" y="210" width="110" height="40" as="geometry"/>
                </mxCell>
                <mxCell id="14" value="&lt;div&gt;User_InfoDao&lt;/div&gt;" style="shape=ext;double=1;rounded=0;whiteSpace=wrap;html=1;" parent="1" vertex="1">
                    <mxGeometry x="341" y="406.5" width="113" height="50" as="geometry"/>
                </mxCell>
                <mxCell id="49" value="" style="edgeStyle=none;html=1;fontFamily=Helvetica;fontSize=24;fontColor=default;fontStyle=1;" parent="1" source="15" target="14" edge="1">
                    <mxGeometry relative="1" as="geometry"/>
                </mxCell>
                <mxCell id="15" value="USER_INFO.xml" style="shape=ext;double=1;rounded=0;whiteSpace=wrap;html=1;" parent="1" vertex="1">
                    <mxGeometry x="347" y="525" width="110" height="50" as="geometry"/>
                </mxCell>
                <mxCell id="18" value="User_InfoDto" style="shape=ext;double=1;rounded=0;whiteSpace=wrap;html=1;" parent="1" vertex="1">
                    <mxGeometry x="547" y="450" width="107" height="50" as="geometry"/>
                </mxCell>
                <mxCell id="20" value="" style="endArrow=classic;html=1;" parent="1" edge="1">
                    <mxGeometry width="50" height="50" relative="1" as="geometry">
                        <mxPoint x="547" y="480" as="sourcePoint"/>
                        <mxPoint x="457" y="430" as="targetPoint"/>
                    </mxGeometry>
                </mxCell>
                <mxCell id="21" value="" style="endArrow=classic;html=1;entryX=1;entryY=0.5;entryDx=0;entryDy=0;exitX=0;exitY=0.75;exitDx=0;exitDy=0;" parent="1" source="18" target="15" edge="1">
                    <mxGeometry width="50" height="50" relative="1" as="geometry">
                        <mxPoint x="557" y="490" as="sourcePoint"/>
                        <mxPoint x="467" y="440" as="targetPoint"/>
                    </mxGeometry>
                </mxCell>
                <mxCell id="22" value="&lt;div&gt;LoginService.java&lt;/div&gt;" style="shape=ext;double=1;rounded=0;whiteSpace=wrap;html=1;" parent="1" vertex="1">
                    <mxGeometry x="337" y="300" width="113" height="41" as="geometry"/>
                </mxCell>
                <mxCell id="23" value="" style="shape=table;startSize=0;container=1;collapsible=0;childLayout=tableLayout;fontSize=16;" parent="1" vertex="1">
                    <mxGeometry x="460" y="660" width="90" height="40" as="geometry"/>
                </mxCell>
                <mxCell id="24" value="" style="shape=tableRow;horizontal=0;startSize=0;swimlaneHead=0;swimlaneBody=0;strokeColor=inherit;top=0;left=0;bottom=0;right=0;collapsible=0;dropTarget=0;fillColor=none;points=[[0,0.5],[1,0.5]];portConstraint=eastwest;fontSize=16;" parent="23" vertex="1">
                    <mxGeometry width="90" height="13" as="geometry"/>
                </mxCell>
                <mxCell id="25" value="" style="shape=partialRectangle;html=1;whiteSpace=wrap;connectable=0;strokeColor=inherit;overflow=hidden;fillColor=none;top=0;left=0;bottom=0;right=0;pointerEvents=1;fontSize=16;" parent="24" vertex="1">
                    <mxGeometry width="30" height="13" as="geometry">
                        <mxRectangle width="30" height="13" as="alternateBounds"/>
                    </mxGeometry>
                </mxCell>
                <mxCell id="26" value="" style="shape=partialRectangle;html=1;whiteSpace=wrap;connectable=0;strokeColor=inherit;overflow=hidden;fillColor=none;top=0;left=0;bottom=0;right=0;pointerEvents=1;fontSize=16;" parent="24" vertex="1">
                    <mxGeometry x="30" width="30" height="13" as="geometry">
                        <mxRectangle width="30" height="13" as="alternateBounds"/>
                    </mxGeometry>
                </mxCell>
                <mxCell id="27" value="" style="shape=partialRectangle;html=1;whiteSpace=wrap;connectable=0;strokeColor=inherit;overflow=hidden;fillColor=none;top=0;left=0;bottom=0;right=0;pointerEvents=1;fontSize=16;" parent="24" vertex="1">
                    <mxGeometry x="60" width="30" height="13" as="geometry">
                        <mxRectangle width="30" height="13" as="alternateBounds"/>
                    </mxGeometry>
                </mxCell>
                <mxCell id="28" value="" style="shape=tableRow;horizontal=0;startSize=0;swimlaneHead=0;swimlaneBody=0;strokeColor=inherit;top=0;left=0;bottom=0;right=0;collapsible=0;dropTarget=0;fillColor=none;points=[[0,0.5],[1,0.5]];portConstraint=eastwest;fontSize=16;" parent="23" vertex="1">
                    <mxGeometry y="13" width="90" height="14" as="geometry"/>
                </mxCell>
                <mxCell id="29" value="" style="shape=partialRectangle;html=1;whiteSpace=wrap;connectable=0;strokeColor=inherit;overflow=hidden;fillColor=none;top=0;left=0;bottom=0;right=0;pointerEvents=1;fontSize=16;" parent="28" vertex="1">
                    <mxGeometry width="30" height="14" as="geometry">
                        <mxRectangle width="30" height="14" as="alternateBounds"/>
                    </mxGeometry>
                </mxCell>
                <mxCell id="30" value="" style="shape=partialRectangle;html=1;whiteSpace=wrap;connectable=0;strokeColor=inherit;overflow=hidden;fillColor=none;top=0;left=0;bottom=0;right=0;pointerEvents=1;fontSize=16;" parent="28" vertex="1">
                    <mxGeometry x="30" width="30" height="14" as="geometry">
                        <mxRectangle width="30" height="14" as="alternateBounds"/>
                    </mxGeometry>
                </mxCell>
                <mxCell id="31" value="" style="shape=partialRectangle;html=1;whiteSpace=wrap;connectable=0;strokeColor=inherit;overflow=hidden;fillColor=none;top=0;left=0;bottom=0;right=0;pointerEvents=1;fontSize=16;" parent="28" vertex="1">
                    <mxGeometry x="60" width="30" height="14" as="geometry">
                        <mxRectangle width="30" height="14" as="alternateBounds"/>
                    </mxGeometry>
                </mxCell>
                <mxCell id="32" value="" style="shape=tableRow;horizontal=0;startSize=0;swimlaneHead=0;swimlaneBody=0;strokeColor=inherit;top=0;left=0;bottom=0;right=0;collapsible=0;dropTarget=0;fillColor=none;points=[[0,0.5],[1,0.5]];portConstraint=eastwest;fontSize=16;" parent="23" vertex="1">
                    <mxGeometry y="27" width="90" height="13" as="geometry"/>
                </mxCell>
                <mxCell id="33" value="" style="shape=partialRectangle;html=1;whiteSpace=wrap;connectable=0;strokeColor=inherit;overflow=hidden;fillColor=none;top=0;left=0;bottom=0;right=0;pointerEvents=1;fontSize=16;" parent="32" vertex="1">
                    <mxGeometry width="30" height="13" as="geometry">
                        <mxRectangle width="30" height="13" as="alternateBounds"/>
                    </mxGeometry>
                </mxCell>
                <mxCell id="34" value="" style="shape=partialRectangle;html=1;whiteSpace=wrap;connectable=0;strokeColor=inherit;overflow=hidden;fillColor=none;top=0;left=0;bottom=0;right=0;pointerEvents=1;fontSize=16;" parent="32" vertex="1">
                    <mxGeometry x="30" width="30" height="13" as="geometry">
                        <mxRectangle width="30" height="13" as="alternateBounds"/>
                    </mxGeometry>
                </mxCell>
                <mxCell id="35" value="" style="shape=partialRectangle;html=1;whiteSpace=wrap;connectable=0;strokeColor=inherit;overflow=hidden;fillColor=none;top=0;left=0;bottom=0;right=0;pointerEvents=1;fontSize=16;" parent="32" vertex="1">
                    <mxGeometry x="60" width="30" height="13" as="geometry">
                        <mxRectangle width="30" height="13" as="alternateBounds"/>
                    </mxGeometry>
                </mxCell>
                <mxCell id="37" value="USER_INFO Table" style="text;strokeColor=none;fillColor=none;html=1;fontSize=10;fontStyle=1;verticalAlign=middle;align=center;" parent="1" vertex="1">
                    <mxGeometry x="455" y="660" width="100" height="40" as="geometry"/>
                </mxCell>
                <mxCell id="38" value="&lt;div&gt;LoginController.java&lt;/div&gt;" style="shape=ext;double=1;rounded=0;whiteSpace=wrap;html=1;" parent="1" vertex="1">
                    <mxGeometry x="325" y="210" width="114" height="41" as="geometry"/>
                </mxCell>
                <mxCell id="39" value="" style="endArrow=none;html=1;" parent="1" edge="1">
                    <mxGeometry width="50" height="50" relative="1" as="geometry">
                        <mxPoint x="25" y="200" as="sourcePoint"/>
                        <mxPoint x="825" y="200" as="targetPoint"/>
                    </mxGeometry>
                </mxCell>
                <mxCell id="40" value="jsp" style="text;strokeColor=none;fillColor=none;html=1;fontSize=24;fontStyle=1;verticalAlign=middle;align=center;" parent="1" vertex="1">
                    <mxGeometry x="30" y="140" width="110" height="40" as="geometry"/>
                </mxCell>
                <mxCell id="41" value="&lt;div&gt;login.jsp&lt;/div&gt;" style="shape=ext;double=1;rounded=0;whiteSpace=wrap;html=1;" parent="1" vertex="1">
                    <mxGeometry x="335" y="130" width="113" height="41" as="geometry"/>
                </mxCell>
                <mxCell id="46" style="edgeStyle=none;html=1;exitX=0;exitY=0.5;exitDx=0;exitDy=0;entryX=1;entryY=0.5;entryDx=0;entryDy=0;fontFamily=Helvetica;fontSize=24;fontColor=default;fontStyle=1;" parent="1" source="43" target="41" edge="1">
                    <mxGeometry relative="1" as="geometry"/>
                </mxCell>
                <mxCell id="43" value="&lt;div&gt;login.js&lt;/div&gt;" style="shape=ext;double=1;rounded=0;whiteSpace=wrap;html=1;" parent="1" vertex="1">
                    <mxGeometry x="519" y="130" width="113" height="41" as="geometry"/>
                </mxCell>
                <mxCell id="50" value="" style="endArrow=classic;html=1;fontFamily=Helvetica;fontSize=24;fontColor=default;fontStyle=1;entryX=0.566;entryY=1.098;entryDx=0;entryDy=0;entryPerimeter=0;" parent="1" target="22" edge="1">
                    <mxGeometry width="50" height="50" relative="1" as="geometry">
                        <mxPoint x="400" y="406.5" as="sourcePoint"/>
                        <mxPoint x="450" y="356.5" as="targetPoint"/>
                    </mxGeometry>
                </mxCell>
                <mxCell id="51" value="" style="endArrow=classic;html=1;fontFamily=Helvetica;fontSize=24;fontColor=default;fontStyle=1;entryX=0.566;entryY=1.098;entryDx=0;entryDy=0;entryPerimeter=0;" parent="1" edge="1">
                    <mxGeometry width="50" height="50" relative="1" as="geometry">
                        <mxPoint x="398" y="300" as="sourcePoint"/>
                        <mxPoint x="398" y="251" as="targetPoint"/>
                    </mxGeometry>
                </mxCell>
                <mxCell id="52" value="" style="endArrow=classic;html=1;fontFamily=Helvetica;fontSize=24;fontColor=default;fontStyle=1;entryX=0.566;entryY=1.098;entryDx=0;entryDy=0;entryPerimeter=0;" parent="1" edge="1">
                    <mxGeometry width="50" height="50" relative="1" as="geometry">
                        <mxPoint x="393" y="210" as="sourcePoint"/>
                        <mxPoint x="393" y="171" as="targetPoint"/>
                    </mxGeometry>
                </mxCell>
                <mxCell id="54" value="" style="endArrow=classic;html=1;fontFamily=Helvetica;fontSize=24;fontColor=default;fontStyle=1;" parent="1" edge="1">
                    <mxGeometry width="50" height="50" relative="1" as="geometry">
                        <mxPoint x="390.5" y="130" as="sourcePoint"/>
                        <mxPoint x="392.5" y="90" as="targetPoint"/>
                    </mxGeometry>
                </mxCell>
            </root>
        </mxGraphModel>
    </diagram>
</mxfile>